<svg width="200" height="250" viewBox="0 0 200 250" xmlns="http://www.w3.org/2000/svg"><rect width="200" height="250" fill="#f5f5f5"/><path d="M40 180 Q50 160 100 155 Q150 160 160 180 L170 250 L30 250 Z" fill="#1a1a1a"/><path d="M70 165 Q100 150 130 165 L125 185 Q100 175 75 185 Z" fill="#1a1a1a"/><path d="M80 165 L100 180 L120 165 L115 155 Q100 148 85 155 Z" fill="#ffffff"/><line x1="100" y1="155" x2="100" y2="180" stroke="#cccccc" stroke-width="1"/><path d="M85 155 Q90 145 100 143 Q110 145 115 155 L115 165 Q100 158 85 165 Z" fill="#e8c4a0"/><ellipse cx="100" cy="95" rx="45" ry="55" fill="#e8c4a0"/><ellipse cx="55" cy="100" rx="8" ry="14" fill="#e8c4a0"/><ellipse cx="145" cy="100" rx="8" ry="14" fill="#e8c4a0"/><path d="M55 75 Q55 35 100 30 Q145 35 145 75 Q140 55 100 50 Q60 55 55 75" fill="#808080"/><path d="M55 75 Q50 65 55 55 Q60 45 70 42" fill="#909090" opacity="0.7"/><path d="M145 75 Q150 65 145 55 Q140 45 130 42" fill="#909090" opacity="0.7"/><path d="M55 80 Q48 85 50 100 Q52 95 55 90" fill="#707070"/><path d="M145 80 Q152 85 150 100 Q148 95 145 90" fill="#707070"/><path d="M70 78 Q80 74 92 78" stroke="#505050" stroke-width="2.5" fill="none"/><path d="M108 78 Q120 74 130 78" stroke="#505050" stroke-width="2.5" fill="none"/><rect x="65" y="82" width="28" height="22" rx="3" fill="none" stroke="#2a2a2a" stroke-width="2.5"/><rect x="107" y="82" width="28" height="22" rx="3" fill="none" stroke="#2a2a2a" stroke-width="2.5"/><line x1="93" y1="93" x2="107" y2="93" stroke="#2a2a2a" stroke-width="2"/><line x1="65" y1="90" x2="55" y2="88" stroke="#2a2a2a" stroke-width="2"/><line x1="135" y1="90" x2="145" y2="88" stroke="#2a2a2a" stroke-width="2"/><ellipse cx="79" cy="93" rx="6" ry="5" fill="#ffffff"/><ellipse cx="121" cy="93" rx="6" ry="5" fill="#ffffff"/><circle cx="79" cy="93" r="3" fill="#3d2314"/><circle cx="121" cy="93" r="3" fill="#3d2314"/><circle cx="80" cy="92" r="1" fill="#ffffff"/><circle cx="122" cy="92" r="1" fill="#ffffff"/><path d="M100 90 Q103 105 100 115 Q95 118 100 120 Q105 118 100 115" fill="none" stroke="#c4a080" stroke-width="2"/><path d="M85 132 Q100 138 115 132" fill="none" stroke="#b08070" stroke-width="2"/><path d="M90 145 Q100 150 110 145" fill="none" stroke="#d4b090" stroke-width="1" opacity="0.5"/></svg>
